<svg width="81" height="76" viewBox="0 0 81 76" fill="none" xmlns="http://www.w3.org/2000/svg">
<circle cx="21.6091" cy="26.5001" r="21.5" fill="#F4475C"/>
<path d="M60.9743 65.6281V60.7136C60.9743 58.1068 59.9323 55.6067 58.0775 53.7634C56.2228 51.9201 53.7072 50.8845 51.0841 50.8845H31.3039C28.6809 50.8845 26.1653 51.9201 24.3106 53.7634C22.4558 55.6067 21.4138 58.1068 21.4138 60.7136V65.6281" stroke="#2A2B6B" stroke-width="4.22222" stroke-linecap="round" stroke-linejoin="round"/>
<path d="M41.1906 45.6496C46.6528 45.6496 51.0808 41.249 51.0808 35.8205C51.0808 30.3921 46.6528 25.9915 41.1906 25.9915C35.7285 25.9915 31.3005 30.3921 31.3005 35.8205C31.3005 41.249 35.7285 45.6496 41.1906 45.6496Z" stroke="#2A2B6B" stroke-width="4.22222" stroke-linecap="round" stroke-linejoin="round"/>
<path d="M75.8058 65.6282V60.7137C75.8041 58.5359 75.0748 56.4203 73.7322 54.6991C72.3897 52.9779 70.5099 51.7486 68.3882 51.2041" stroke="#2A2B6B" stroke-width="4.22222" stroke-linecap="round" stroke-linejoin="round"/>
<path d="M58.5002 26.3109C60.6276 26.8523 62.5132 28.0819 63.8598 29.8059C65.2063 31.5299 65.9372 33.6503 65.9372 35.8328C65.9372 38.0153 65.2063 40.1357 63.8598 41.8597C62.5132 43.5838 60.6276 44.8134 58.5002 45.3547" stroke="#2A2B6B" stroke-width="4.22222" stroke-linecap="round" stroke-linejoin="round"/>
</svg>
