<svg width="82" height="78" viewBox="0 0 82 78" fill="none" xmlns="http://www.w3.org/2000/svg">
<circle cx="21.6086" cy="26.4999" r="21.5" fill="#F4475C"/>
<path d="M42.9688 29.062C45.6209 29.0621 48.102 29.9571 50.0771 31.5923L50.4658 31.9292L52.4326 33.7222L54.2061 32.0542L54.5195 31.771C57.8196 28.9109 62.7697 28.2692 66.6699 30.2241H66.6689L72.0225 32.9019L72.4131 33.0825C73.3382 33.4782 74.3477 33.687 75.3525 33.687H78.9512C79.9462 33.6872 80.7529 34.4947 80.7529 35.4897C80.7529 36.4848 79.9462 37.2923 78.9512 37.2925H75.3525C73.7541 37.2925 72.1508 36.938 70.6973 36.2642L70.4082 36.1255L65.0547 33.4478C62.4405 32.1365 59.0981 32.5712 56.8867 34.4888L56.6758 34.6792L45.8135 44.9048L45.8145 44.9058C44.7419 45.9783 44.5851 47.6157 45.3477 48.6743H45.3467C45.8552 49.379 46.5894 49.7958 47.4248 49.8647H47.4258C48.2532 49.9254 49.0706 49.6329 49.6543 49.0474L49.6592 49.0415L49.665 49.0366L59.2959 39.8169L59.4355 39.6968C60.1559 39.1339 61.2007 39.1991 61.8457 39.8745L61.9658 40.0132C62.5248 40.7317 62.4635 41.7749 61.7871 42.4214L61.7881 42.4224L57.4512 46.5728L74.4033 59.2866C75.0122 59.1817 75.6321 59.1245 76.2549 59.1245H78.9531C79.9483 59.1245 80.7559 59.9321 80.7559 60.9272C80.7559 61.9224 79.9483 62.73 78.9531 62.73H76.2549C74.7552 62.73 73.2644 63.1944 72.0293 64.0444L71.7861 64.2192L57.6982 74.7827C56.1311 75.9974 54.2479 76.6069 52.3613 76.6069C50.4751 76.6069 48.5786 75.9946 47.002 74.7681V74.769L32.9307 64.2192C31.6508 63.2583 30.0614 62.73 28.4619 62.73H25.7656C24.7705 62.73 23.9629 61.9224 23.9629 60.9272C23.9629 59.9321 24.7705 59.1245 25.7656 59.1245H28.4639C30.8419 59.1245 33.1941 59.9072 35.0938 61.3325L49.1816 71.896L49.1914 71.9038L49.3682 72.0366C51.2227 73.3618 53.7132 73.3118 55.5127 71.9165L55.5215 71.9106L69.625 61.3325H69.626L70.0293 61.0454C70.1553 60.9599 70.2829 60.8773 70.4121 60.7974L54.8125 49.1001L52.1777 51.6235L52.1768 51.6226C50.9823 52.8119 49.3566 53.4799 47.6631 53.48C45.6018 53.48 43.7808 52.4701 42.6416 51.0669L42.4229 50.7808C40.5964 48.2449 41.0022 44.6188 43.293 42.3306L43.2998 42.3237L43.3066 42.3179L49.8027 36.1997L48.0391 34.5942C45.7796 32.5383 42.2195 32.1659 39.6621 33.4478H39.6611L34.3076 36.1255C32.7795 36.8895 31.0714 37.2924 29.3643 37.2925H25.7656C24.7705 37.2925 23.9629 36.4849 23.9629 35.4897C23.9629 34.4946 24.7705 33.687 25.7656 33.687H29.3643C30.5122 33.687 31.6662 33.4142 32.6934 32.9019L38.0469 30.2241C39.5644 29.4618 41.2667 29.062 42.9688 29.062Z" fill="#2A2B6B" stroke="#2A2B6B" stroke-width="1.29253"/>
</svg>
